<?xml version="1.0" standalone="no"?>
<!DOCTYPE svg PUBLIC "-//W3C//DTD SVG 20010904//EN"
 "http://www.w3.org/TR/2001/REC-SVG-20010904/DTD/svg10.dtd">
<svg version="1.0" xmlns="http://www.w3.org/2000/svg"
 width="877.000000pt" height="532.000000pt" viewBox="0 0 877.000000 532.000000"
 preserveAspectRatio="xMidYMid meet">

<g transform="translate(0.000000,532.000000) scale(0.100000,-0.100000)"
fill="#000000" stroke="none">
<path d="M0 2660 l0 -2660 4385 0 4385 0 0 2660 0 2660 -4385 0 -4385 0 0
-2660z m932 1958 c-16 -16 -37 4 -28 28 6 16 8 16 23 1 13 -13 14 -19 5 -29z
m122 25 c9 -21 -16 -46 -37 -37 -17 6 -23 35 -10 47 12 13 41 7 47 -10z m104
-11 c3 -18 -1 -22 -21 -22 -28 0 -41 22 -24 39 17 17 42 9 45 -17z m1104 -90
c4 -12 -1 -18 -13 -18 -22 0 -21 -1 -13 20 8 21 21 20 26 -2z m168 -1 c0 -5
-7 -11 -15 -15 -15 -5 -20 5 -8 17 9 10 23 9 23 -2z m37 -13 c-3 -8 -6 -5 -6
6 -1 11 2 17 5 13 3 -3 4 -12 1 -19z m28 12 c3 -5 1 -10 -4 -10 -6 0 -11 5
-11 10 0 6 2 10 4 10 3 0 8 -4 11 -10z m45 -6 c0 -8 -4 -12 -10 -9 -5 3 -10
10 -10 16 0 5 5 9 10 9 6 0 10 -7 10 -16z m85 6 c3 -5 -1 -10 -9 -10 -9 0 -16
5 -16 10 0 6 4 10 9 10 6 0 13 -4 16 -10z m35 -6 c0 -8 -4 -12 -10 -9 -5 3
-10 10 -10 16 0 5 5 9 10 9 6 0 10 -7 10 -16z m-772 -41 c3 -17 -3 -19 -48
-19 -45 0 -51 2 -48 20 4 30 47 49 73 32 11 -7 21 -22 23 -33z m575 -204 c5
-3 2 -9 -7 -12 -12 -5 -16 0 -16 15 0 12 3 17 8 12 4 -5 11 -12 15 -15z m47 7
c0 -2 -7 -7 -16 -10 -8 -3 -12 -2 -9 4 6 10 25 14 25 6z m100 0 c0 -3 -4 -8
-10 -11 -5 -3 -10 -1 -10 4 0 6 5 11 10 11 6 0 10 -2 10 -4z m60 -15 c0 -4 -8
-7 -19 -7 -11 0 -17 6 -14 13 5 12 33 7 33 -6z m-1497 -26 c-3 -9 -8 -14 -10
-11 -3 3 -2 9 2 15 9 16 15 13 8 -4z m6590 -156 c14 -22 1 -55 -16 -41 -19 16
-21 16 -44 3 -24 -12 -28 -7 -23 29 5 33 64 39 83 9z m-6586 -11 c-3 -8 -6 -5
-6 6 -1 11 2 17 5 13 3 -3 4 -12 1 -19z m5378 -13 c0 -27 -3 -30 -30 -30 -21
0 -31 5 -33 18 -6 33 6 49 35 45 24 -3 28 -8 28 -33z m-3578 -1 c2 -13 1 -15
-4 -4 -3 8 -11 19 -17 23 -7 6 -6 7 4 4 8 -2 16 -12 17 -23z m60 -6 c-3 -8 -6
-5 -6 6 -1 11 2 17 5 13 3 -3 4 -12 1 -19z m-177 2 c0 -5 -7 -10 -16 -10 -8 0
-12 5 -9 10 3 6 10 10 16 10 5 0 9 -4 9 -10z m160 -3 c0 -8 -7 -14 -15 -14
-25 0 -17 17 13 26 1 1 2 -5 2 -12z m70 -2 c0 -8 -7 -15 -15 -15 -16 0 -20 12
-8 23 11 12 23 8 23 -8z m110 0 c0 -9 -6 -12 -16 -8 -13 5 -13 7 -2 14 17 11
18 11 18 -6z m80 -7 c0 -6 -6 -5 -15 2 -8 7 -15 14 -15 16 0 2 7 1 15 -2 8 -4
15 -11 15 -16z m108 -3 c-3 -3 -9 2 -12 12 -6 14 -5 15 5 6 7 -7 10 -15 7 -18z
m42 4 c0 -6 -4 -7 -10 -4 -5 3 -10 11 -10 16 0 6 5 7 10 4 6 -3 10 -11 10 -16z
m-2300 -114 c14 -19 14 -19 -2 -6 -10 7 -18 18 -18 24 0 6 1 8 3 6 1 -2 9 -13
17 -24z m6585 -75 c-3 -5 1 -10 10 -10 9 0 13 5 10 10 -9 15 11 12 23 -3 13
-15 13 -77 0 -77 -4 0 -8 8 -8 18 -1 16 -2 16 -14 -1 -12 -15 -18 -16 -35 -7
-20 10 -30 58 -14 73 10 11 35 8 28 -3z m-1160 -35 c0 -27 -3 -30 -30 -30 -21
0 -31 5 -33 18 -6 33 6 49 35 45 24 -3 28 -8 28 -33z m-3498 -1 c9 -23 -11
-38 -26 -20 -13 16 -7 36 10 36 5 0 12 -7 16 -16z m163 -10 c0 -8 -7 -14 -15
-14 -17 0 -18 2 -9 24 7 18 24 12 24 -10z m38 -5 c-3 -8 -7 -3 -11 10 -4 17
-3 21 5 13 5 -5 8 -16 6 -23z m42 11 c0 -12 -7 -20 -17 -20 -14 0 -15 2 -4 9
7 5 10 14 7 20 -4 6 -2 11 3 11 6 0 11 -9 11 -20z m194 -19 c-8 -9 -22 12 -17
26 6 15 7 14 13 -3 4 -10 6 -21 4 -23z m82 30 c-4 -5 0 -11 6 -14 7 -2 9 -8 5
-13 -9 -10 -28 16 -21 28 3 4 7 8 10 8 3 0 3 -4 0 -9z m214 3 c0 -8 -19 -13
-24 -6 -3 5 1 9 9 9 8 0 15 -2 15 -3z m-930 -8 c0 -3 -4 -8 -10 -11 -5 -3 -10
-1 -10 4 0 6 5 11 10 11 6 0 10 -2 10 -4z m96 -5 c-4 -5 0 -12 6 -14 8 -3 6
-6 -4 -6 -10 -1 -18 6 -18 14 0 8 5 15 11 15 5 0 8 -4 5 -9z m188 -7 c3 -8 -3
-12 -15 -11 -10 1 -19 6 -19 12 0 16 28 15 34 -1z m216 6 c6 9 10 11 10 3 0
-7 -9 -17 -20 -23 -17 -9 -20 -8 -20 12 0 19 2 20 10 8 9 -13 11 -13 20 0z
m45 -9 c-3 -6 -11 -11 -16 -11 -5 0 -4 6 3 14 14 16 24 13 13 -3z m55 6 c0 -7
-9 -13 -20 -13 -20 0 -25 7 -13 19 11 12 33 8 33 -6z m60 3 c0 -5 -2 -10 -4
-10 -3 0 -8 5 -11 10 -3 6 -1 10 4 10 6 0 11 -4 11 -10z m103 -5 c-3 -9 -8
-14 -10 -11 -3 3 -2 9 2 15 9 16 15 13 8 -4z m37 -6 c0 -5 -4 -9 -8 -9 -5 0
-9 7 -9 15 0 8 4 12 9 9 4 -3 8 -9 8 -15z m66 -6 c-7 -7 -26 7 -26 19 0 6 6 6
15 -2 9 -7 13 -15 11 -17z m-1279 -205 c-3 -7 -5 -2 -5 12 0 14 2 19 5 13 2
-7 2 -19 0 -25z m203 18 c0 -3 -4 -8 -10 -11 -5 -3 -10 -1 -10 4 0 6 5 11 10
11 6 0 10 -2 10 -4z m34 -12 c3 -8 2 -12 -4 -9 -6 3 -10 10 -10 16 0 14 7 11
14 -7z m178 -204 c-2 -20 -1 -22 7 -10 6 8 11 10 11 5 0 -27 -51 -48 -64 -26
-3 4 7 6 22 3 24 -5 25 -3 14 10 -11 13 -11 18 0 24 9 6 6 10 -12 16 l-25 7
25 -2 c20 -2 24 -7 22 -27z m4874 5 c4 -8 11 -12 16 -9 6 4 9 1 6 -6 -2 -8 -9
-15 -15 -17 -14 -5 -45 26 -38 38 9 14 25 11 31 -6z m-4479 -17 c-3 -8 -6 -5
-6 6 -1 11 2 17 5 13 3 -3 4 -12 1 -19z m340 -10 c-3 -7 -5 -2 -5 12 0 14 2
19 5 13 2 -7 2 -19 0 -25z m-590 0 c-3 -8 -6 -5 -6 6 -1 11 2 17 5 13 3 -3 4
-12 1 -19z m83 6 c0 -8 -5 -12 -10 -9 -6 4 -8 11 -5 16 9 14 15 11 15 -7z m55
6 c3 -5 1 -10 -4 -10 -6 0 -11 5 -11 10 0 6 2 10 4 10 3 0 8 -4 11 -10z m275
0 c0 -5 -5 -10 -11 -10 -5 0 -7 5 -4 10 3 6 8 10 11 10 2 0 4 -4 4 -10z m145
0 c3 -5 -1 -10 -10 -10 -9 0 -13 5 -10 10 3 6 8 10 10 10 2 0 7 -4 10 -10z
m142 -7 c2 -6 -4 -10 -13 -9 -10 2 -20 8 -22 15 -3 8 3 12 14 9 9 -1 19 -8 21
-15z m43 -5 c0 -18 -2 -20 -9 -8 -6 8 -7 18 -5 22 9 14 14 9 14 -14z m27 0
c-3 -8 -6 -5 -6 6 -1 11 2 17 5 13 3 -3 4 -12 1 -19z m-320 -10 c-3 -8 -6 -5
-6 6 -1 11 2 17 5 13 3 -3 4 -12 1 -19z m4315 -13 c0 -5 -5 -11 -11 -13 -6 -2
-11 4 -11 13 0 9 5 15 11 13 6 -2 11 -8 11 -13z m-6651 -168 c-10 -9 -11 -8
-5 6 3 10 9 15 12 12 3 -3 0 -11 -7 -18z m82 8 c-3 -9 -8 -14 -10 -11 -3 3 -2
9 2 15 9 16 15 13 8 -4z m1661 -36 c1 -18 -3 -25 -11 -22 -16 6 -16 15 0 32
10 11 7 13 -15 9 -15 -3 -25 -1 -22 4 3 5 15 8 27 6 14 -2 21 -11 21 -29z
m4872 6 c4 -8 10 -12 15 -9 5 3 9 0 9 -5 0 -16 -47 -13 -53 3 -3 8 -3 17 0 20
11 10 23 7 29 -9z m-4763 -14 c3 -14 0 -17 -14 -14 -10 3 -15 11 -12 19 7 20
20 17 26 -5z m150 4 c-3 -9 -8 -14 -10 -11 -3 3 -2 9 2 15 9 16 15 13 8 -4z
m55 -16 c-3 -8 -7 -3 -11 10 -4 17 -3 21 5 13 5 -5 8 -16 6 -23z m19 9 c-3 -8
-6 -5 -6 6 -1 11 2 17 5 13 3 -3 4 -12 1 -19z m88 12 c8 12 25 4 25 -13 0 -8
-3 -8 -9 2 -6 9 -11 10 -15 2 -10 -16 -23 -14 -30 5 -5 14 -4 15 8 5 10 -8 16
-9 21 -1z m92 -22 c-3 -7 -5 -2 -5 12 0 14 2 19 5 13 2 -7 2 -19 0 -25z m39
20 c4 -7 3 -8 -4 -4 -7 4 -12 2 -12 -5 0 -7 -3 -10 -6 -6 -6 5 3 27 11 27 2 0
7 -5 11 -12z m70 0 c4 -7 3 -8 -4 -4 -7 4 -12 2 -12 -5 0 -7 -3 -10 -6 -6 -6
5 3 27 11 27 2 0 7 -5 11 -12z m60 0 c4 -7 3 -8 -4 -4 -7 4 -12 0 -12 -10 0
-10 -3 -15 -6 -11 -7 6 2 37 10 37 3 0 8 -5 12 -12z m21 -20 c-3 -7 -5 -2 -5
12 0 14 2 19 5 13 2 -7 2 -19 0 -25z m79 20 c4 -7 3 -8 -4 -4 -7 4 -12 0 -12
-10 0 -10 -3 -15 -6 -11 -7 6 2 37 10 37 3 0 8 -5 12 -12z m214 -23 c0 0 -9
-1 -20 -1 -12 0 -20 7 -20 18 0 17 1 17 20 1 11 -10 20 -18 20 -18z m77 3 c-3
-7 -5 -2 -5 12 0 14 2 19 5 13 2 -7 2 -19 0 -25z m59 20 c4 -7 3 -8 -4 -4 -7
4 -12 2 -12 -5 0 -7 -3 -10 -6 -6 -6 5 3 27 11 27 2 0 7 -5 11 -12z m218 4 c3
-5 -1 -9 -9 -9 -8 0 -12 4 -9 9 3 4 7 8 9 8 2 0 6 -4 9 -8z m-1217 -34 c-3 -7
-5 -2 -5 12 0 14 2 19 5 13 2 -7 2 -19 0 -25z m67 21 c9 8 16 9 16 4 0 -5 -11
-15 -25 -21 -23 -10 -25 -9 -25 11 0 17 2 19 9 8 8 -12 12 -12 25 -2z m176 1
c0 -5 -5 -10 -11 -10 -5 0 -7 5 -4 10 3 6 8 10 11 10 2 0 4 -4 4 -10z m358
-15 c-3 -3 -9 2 -12 12 -6 14 -5 15 5 6 7 -7 10 -15 7 -18z m169 3 c-3 -8 -6
-5 -6 6 -1 11 2 17 5 13 3 -3 4 -12 1 -19z m130 0 c-3 -8 -6 -5 -6 6 -1 11 2
17 5 13 3 -3 4 -12 1 -19z m60 0 c-3 -8 -6 -5 -6 6 -1 11 2 17 5 13 3 -3 4
-12 1 -19z m3814 -21 c-1 -12 -15 -9 -19 4 -3 6 1 10 8 8 6 -3 11 -8 11 -12z
m-6678 -57 c-3 -12 -8 -19 -11 -16 -5 6 5 36 12 36 2 0 2 -9 -1 -20z m178 -17
c13 -16 12 -17 -3 -4 -10 7 -18 15 -18 17 0 8 8 3 21 -13z m-136 -13 c-3 -5
-14 -10 -23 -9 -14 0 -13 2 3 9 27 11 27 11 20 0z m6623 -82 c7 -7 12 -20 12
-30 0 -14 -6 -16 -30 -12 -17 4 -36 1 -44 -5 -18 -15 -27 5 -15 37 9 25 56 31
77 10z m-1183 -33 c0 -27 -4 -30 -32 -33 -32 -3 -33 -2 -33 33 0 35 1 36 33
33 28 -3 32 -6 32 -33z m-3711 -2 c0 -20 -6 -29 -20 -30 -17 -2 -17 -1 -1 3
15 5 16 8 6 21 -12 13 -7 22 16 33 1 0 0 -12 -1 -27z m101 -11 c-22 -5 -27 1
-19 23 7 17 8 17 21 -1 12 -17 12 -19 -2 -22z m55 8 c0 -11 -2 -20 -4 -20 -2
0 -6 9 -9 20 -3 11 -1 20 4 20 5 0 9 -9 9 -20z m159 -1 c-16 -10 -23 -4 -14
10 3 6 11 8 17 5 6 -4 5 -9 -3 -15z m49 -10 c-3 -8 -7 -3 -11 10 -4 17 -3 21
5 13 5 -5 8 -16 6 -23z m68 19 c4 -7 3 -8 -4 -4 -7 4 -12 2 -12 -5 0 -7 -3
-10 -6 -6 -6 5 3 27 11 27 2 0 7 -5 11 -12z m351 -10 c-3 -8 -6 -5 -6 6 -1 11
2 17 5 13 3 -3 4 -12 1 -19z m53 -4 c0 -8 -4 -12 -10 -9 -5 3 -10 13 -10 21 0
8 5 12 10 9 6 -3 10 -13 10 -21z m2415 16 c-3 -5 -11 -10 -16 -10 -6 0 -7 5
-4 10 3 6 11 10 16 10 6 0 7 -4 4 -10z m1655 -40 c0 -5 -5 -10 -11 -10 -5 0
-7 5 -4 10 3 6 8 10 11 10 2 0 4 -4 4 -10z m-17 -168 c16 -18 21 -82 5 -82 -4
0 -8 7 -8 17 0 15 -2 15 -17 0 -24 -21 -53 -1 -53 36 0 42 45 60 73 29z
m-4883 -9 c0 -17 -19 -37 -27 -29 -4 5 -2 11 5 13 6 3 10 9 6 14 -3 5 0 9 5 9
6 0 11 -3 11 -7z m3708 -25 c-3 -29 -6 -33 -33 -33 -27 0 -30 4 -33 33 -3 31
-2 32 33 32 35 0 36 -1 33 -32z m-3608 6 c0 -10 6 -14 14 -11 8 3 17 -1 20
-10 5 -11 2 -13 -11 -8 -10 4 -26 10 -35 12 -22 6 -24 33 -3 33 8 0 15 -7 15
-16z m67 -16 c-3 -7 -5 -2 -5 12 0 14 2 19 5 13 2 -7 2 -19 0 -25z m490 0 c-3
-7 -5 -2 -5 12 0 14 2 19 5 13 2 -7 2 -19 0 -25z m-457 18 c0 -3 -4 -8 -10
-11 -5 -3 -10 -1 -10 4 0 6 5 11 10 11 6 0 10 -2 10 -4z m57 -18 c-3 -8 -6 -5
-6 6 -1 11 2 17 5 13 3 -3 4 -12 1 -19z m90 0 c-3 -8 -6 -5 -6 6 -1 11 2 17 5
13 3 -3 4 -12 1 -19z m-123 -4 c3 -8 2 -12 -4 -9 -6 3 -10 10 -10 16 0 14 7
11 14 -7z m90 0 c3 -8 2 -12 -4 -9 -6 3 -10 10 -10 16 0 14 7 11 14 -7z m126
6 c0 -5 -4 -10 -10 -10 -5 0 -10 5 -10 10 0 6 5 10 10 10 6 0 10 -4 10 -10z
m106 -17 c-10 -10 -19 5 -10 18 6 11 8 11 12 0 2 -7 1 -15 -2 -18z m214 6 c0
-11 -4 -18 -10 -14 -5 3 -7 12 -3 20 7 21 13 19 13 -6z m4091 -178 c-10 -7
-10 -10 -1 -16 7 -4 16 -1 21 6 13 20 27 -5 27 -47 0 -19 -4 -34 -9 -34 -5 0
-9 7 -9 15 0 20 -16 19 -24 0 -5 -13 -9 -13 -26 -3 -25 16 -27 63 -2 77 21 13
43 14 23 2z m-1157 -7 c10 -4 16 -18 16 -35 0 -22 -6 -30 -24 -35 -33 -8 -46
2 -46 35 0 40 15 50 54 35z m-3699 -25 c-5 -14 -4 -19 4 -15 7 4 9 1 5 -8 -5
-14 -8 -14 -21 -1 -12 12 -12 17 -1 29 18 21 20 20 13 -5z m182 -5 c-3 -3 -12
-4 -19 -1 -8 3 -5 6 6 6 11 1 17 -2 13 -5z m83 -26 c0 -19 -16 -5 -17 14 -2
18 0 20 7 8 5 -8 10 -18 10 -22z m201 18 c-9 -11 -9 -15 1 -19 9 -4 9 -6 1 -6
-6 -1 -15 4 -18 9 -8 12 2 30 17 30 7 0 7 -5 -1 -14z m86 8 c-3 -3 -12 -4 -19
-1 -8 3 -5 6 6 6 11 1 17 -2 13 -5z m39 -14 c0 -11 -3 -20 -7 -20 -10 0 -19
27 -12 34 12 11 19 6 19 -14z m51 14 c-3 -3 -12 -4 -19 -1 -8 3 -5 6 6 6 11 1
17 -2 13 -5z m37 -5 c-2 -4 0 -10 6 -14 5 -3 10 2 10 11 0 10 3 15 6 11 4 -3
4 -14 0 -23 -5 -12 -9 -14 -20 -5 -7 6 -16 8 -19 4 -4 -3 -7 0 -7 9 0 8 7 15
15 15 8 0 12 -4 9 -8z m148 -21 c-6 -6 -12 -6 -17 3 -5 8 -4 10 3 5 7 -4 12 0
13 11 0 12 2 13 6 5 3 -8 1 -18 -5 -24z m31 12 c3 -11 1 -20 -4 -20 -5 0 -9 9
-9 20 0 11 2 20 4 20 2 0 6 -9 9 -20z m64 -2 c-3 -8 -6 -5 -6 6 -1 11 2 17 5
13 3 -3 4 -12 1 -19z m63 5 c0 -15 -2 -16 -10 -3 -9 13 -10 13 -10 0 0 -12 -2
-13 -9 -1 -7 11 -9 11 -14 0 -4 -10 -6 -9 -6 4 -1 12 7 17 24 17 17 0 25 -5
25 -17z m47 -3 c-1 -11 -5 -20 -9 -20 -10 0 -10 4 -2 24 8 22 13 20 11 -4z
m43 0 c0 -11 -4 -20 -9 -20 -5 0 -7 9 -4 20 3 11 7 20 9 20 2 0 4 -9 4 -20z
m73 0 c3 -11 1 -18 -4 -14 -5 3 -9 12 -9 20 0 20 7 17 13 -6z m34 -2 c-3 -8
-6 -5 -6 6 -1 11 2 17 5 13 3 -3 4 -12 1 -19z m-1086 -11 c-10 -9 -11 -8 -5 6
3 10 9 15 12 12 3 -3 0 -11 -7 -18z m49 14 c0 -6 -4 -13 -10 -16 -5 -3 -10 1
-10 9 0 9 5 16 10 16 6 0 10 -4 10 -9z m230 -1 c0 -5 -5 -10 -11 -10 -5 0 -7
5 -4 10 3 6 8 10 11 10 2 0 4 -4 4 -10z m44 -6 c3 -8 2 -12 -4 -9 -6 3 -10 10
-10 16 0 14 7 11 14 -7z m-1187 -471 c-2 -32 -3 -6 -3 57 0 63 1 89 3 58 2
-32 2 -84 0 -115z m773 83 c0 -2 3 -13 6 -23 5 -17 5 -17 -6 0 -12 19 -50 23
-50 5 0 -6 -3 -9 -6 -5 -11 11 7 27 32 27 13 0 24 -2 24 -4z m100 -26 c9 -17
8 -20 -9 -20 -14 0 -18 5 -14 20 3 11 7 20 9 20 2 0 8 -9 14 -20z m227 -12
c-3 -8 -6 -5 -6 6 -1 11 2 17 5 13 3 -3 4 -12 1 -19z m-1780 -10 c-3 -8 -6 -5
-6 6 -1 11 2 17 5 13 3 -3 4 -12 1 -19z m1580 -10 c-3 -7 -5 -2 -5 12 0 14 2
19 5 13 2 -7 2 -19 0 -25z m60 20 c5 14 23 17 23 4 0 -5 -11 -14 -25 -20 -23
-10 -25 -9 -25 11 0 18 2 19 11 7 8 -11 12 -12 16 -2z m118 -7 c-8 -14 -25
-14 -25 0 0 5 5 7 10 4 6 -3 10 -1 10 6 0 7 3 10 6 6 3 -3 3 -10 -1 -16z m299
3 c3 -8 2 -12 -4 -9 -6 3 -10 10 -10 16 0 14 7 11 14 -7z m76 1 c0 -12 -19
-12 -23 0 -4 9 -1 12 9 8 7 -3 14 -7 14 -8z m40 0 c0 -8 -7 -15 -15 -15 -13 0
-14 3 -3 15 16 18 18 18 18 0z m24 0 c3 -8 1 -15 -4 -15 -6 0 -10 7 -10 15 0
8 2 15 4 15 2 0 6 -7 10 -15z m53 3 c5 14 23 17 23 4 0 -5 -11 -14 -25 -20
-23 -10 -25 -9 -25 11 0 18 2 19 11 7 8 -11 12 -12 16 -2z m307 -4 c3 -8 2
-12 -4 -9 -6 3 -10 10 -10 16 0 14 7 11 14 -7z m68 -3 c-4 -10 -7 -11 -10 -3
-2 7 -8 10 -12 7 -5 -3 -11 -1 -15 5 -4 6 4 9 18 8 17 -2 23 -7 19 -17z m68
-2 c0 -11 -4 -18 -10 -14 -5 3 -7 12 -3 20 7 21 13 19 13 -6z m61 -2 c-10 -9
-11 -8 -5 6 3 10 9 15 12 12 3 -3 0 -11 -7 -18z m90 13 c9 13 10 13 6 0 -6
-22 -37 -25 -37 -3 0 15 2 16 10 3 9 -13 11 -13 21 0z m39 -11 c0 -5 -4 -9 -8
-9 -5 0 -9 7 -9 15 0 8 4 12 9 9 4 -3 8 -9 8 -15z m-1443 -5 c14 6 15 4 7 -4
-15 -15 -46 -9 -52 10 -5 13 -3 13 11 1 9 -7 25 -10 34 -7z m1363 4 c0 -4 -4
-8 -9 -8 -6 0 -12 4 -15 8 -3 5 1 9 9 9 8 0 15 -4 15 -9z m-2880 -2 c0 -2 -7
-6 -15 -10 -8 -3 -15 -1 -15 4 0 6 7 10 15 10 8 0 15 -2 15 -4z m1524 -192 c9
-8 16 -20 16 -26 0 -6 -9 0 -20 13 -20 24 -20 24 -35 5 -8 -11 -15 -15 -15
-10 0 12 21 34 31 34 4 0 15 -7 23 -16z m186 -41 c0 -14 -3 -23 -7 -19 -10 10
-11 46 -1 46 4 0 8 -12 8 -27z m54 20 c-5 -5 -12 -12 -16 -18 -4 -6 -8 -2 -8
8 0 9 7 17 17 17 9 0 12 -3 7 -7z m50 -8 c-4 -8 -8 -15 -10 -15 -2 0 -4 7 -4
15 0 8 4 15 10 15 5 0 7 -7 4 -15z m40 7 c3 -5 -1 -9 -9 -9 -8 0 -12 4 -9 9 3
4 7 8 9 8 2 0 6 -4 9 -8z m39 -7 c4 -8 3 -16 -1 -19 -4 -3 -9 4 -9 15 -2 23 3
25 10 4z m143 3 c4 -7 3 -8 -4 -4 -7 4 -12 2 -12 -5 0 -7 -3 -10 -6 -6 -6 5 3
27 11 27 2 0 7 -5 11 -12z m81 -8 c1 -11 -2 -20 -5 -20 -4 0 -8 9 -9 20 -1 11
2 20 5 20 4 0 8 -9 9 -20z m89 9 c9 -16 -12 -33 -31 -25 -14 5 -15 9 -5 21 15
18 26 19 36 4z m84 7 c0 -2 -7 -7 -16 -10 -8 -3 -12 -2 -9 4 6 10 25 14 25 6z
m24 -11 c-4 -8 -8 -15 -10 -15 -2 0 -4 7 -4 15 0 8 4 15 10 15 5 0 7 -7 4 -15z
m-808 -32 c-6 -6 -36 9 -36 18 0 5 9 4 20 -3 10 -7 18 -14 16 -15z m729 17 c3
-5 1 -10 -4 -10 -6 0 -11 5 -11 10 0 6 2 10 4 10 3 0 8 -4 11 -10z m-308 -232
c-3 -7 -5 -2 -5 12 0 14 2 19 5 13 2 -7 2 -19 0 -25z m230 0 c-3 -7 -5 -2 -5
12 0 14 2 19 5 13 2 -7 2 -19 0 -25z m-626 -5 c-12 -20 -14 -14 -5 12 4 9 9
14 11 11 3 -2 0 -13 -6 -23z m126 5 c-3 -8 -6 -5 -6 6 -1 11 2 17 5 13 3 -3 4
-12 1 -19z m37 13 c3 -5 -1 -11 -9 -15 -9 -3 -15 0 -15 9 0 16 16 20 24 6z
m46 -12 c0 -6 -4 -7 -10 -4 -5 3 -10 11 -10 16 0 6 5 7 10 4 6 -3 10 -11 10
-16z m400 8 c0 -8 -7 -14 -15 -14 -11 0 -12 4 -4 14 6 7 13 13 15 13 2 0 4 -6
4 -13z m64 4 c3 -5 -1 -11 -9 -15 -9 -3 -15 0 -15 9 0 16 16 20 24 6z m241 -1
c3 -5 1 -10 -4 -10 -6 0 -11 5 -11 10 0 6 2 10 4 10 3 0 8 -4 11 -10z m-475
-4 c0 -2 -7 -6 -15 -10 -8 -3 -15 -1 -15 4 0 6 7 10 15 10 8 0 15 -2 15 -4z
m375 -6 c-27 -12 -35 -12 -35 0 0 6 12 10 28 9 24 0 25 -1 7 -9z m-841 -29
c-2 -3 -12 3 -22 13 -16 17 -16 18 5 5 12 -7 20 -15 17 -18z m21 -171 c3 -6
-1 -7 -10 -4 -8 4 -22 1 -30 -6 -9 -8 -15 -8 -15 -2 0 19 45 29 55 12z m102
-17 c-4 -3 -2 -12 4 -19 8 -9 5 -11 -10 -7 -20 5 -19 33 2 33 6 0 7 -3 4 -7z
m70 -15 c-3 -8 -6 -5 -6 6 -1 11 2 17 5 13 3 -3 4 -12 1 -19z m-163 -12 c-3
-9 -10 -16 -15 -16 -5 0 -4 9 3 20 14 22 21 20 12 -4z m236 6 c0 -12 -3 -12
-15 -2 -8 7 -15 13 -15 15 0 1 7 2 15 2 8 0 15 -7 15 -15z m190 2 c0 -8 -5
-12 -10 -9 -6 4 -8 11 -5 16 9 14 15 11 15 -7z m267 -6 c-3 -8 -6 -5 -6 6 -1
11 2 17 5 13 3 -3 4 -12 1 -19z m-732 -17 c-6 -5 -25 10 -25 20 0 5 6 4 14 -3
8 -7 12 -15 11 -17z m29 -180 c3 -4 -6 -6 -19 -3 -16 3 -25 0 -25 -9 0 -7 -3
-10 -6 -6 -3 3 -3 10 1 16 7 13 42 15 49 2z m126 -43 c0 -6 -7 -5 -15 2 -12
10 -15 10 -15 0 0 -8 -2 -11 -5 -8 -3 3 -3 13 1 22 5 13 9 14 20 5 8 -6 14
-16 14 -21z m-119 -1 c-10 -9 -11 -8 -5 6 3 10 9 15 12 12 3 -3 0 -11 -7 -18z
m156 1 c-3 -8 -6 -5 -6 6 -1 11 2 17 5 13 3 -3 4 -12 1 -19z m56 8 c4 -10 1
-13 -8 -9 -8 3 -12 9 -9 14 7 12 11 11 17 -5z m60 -1 c-2 -7 -10 -12 -18 -12
-8 0 -16 5 -18 12 -3 6 5 11 18 11 13 0 21 -5 18 -11z m44 -7 c-3 -8 -6 -5 -6
6 -1 11 2 17 5 13 3 -3 4 -12 1 -19z m90 0 c-3 -8 -6 -5 -6 6 -1 11 2 17 5 13
3 -3 4 -12 1 -19z m63 13 c0 -5 -6 -14 -14 -21 -12 -9 -15 -8 -13 9 1 20 27
31 27 12z m27 -13 c-3 -8 -6 -5 -6 6 -1 11 2 17 5 13 3 -3 4 -12 1 -19z m40 0
c-3 -8 -6 -5 -6 6 -1 11 2 17 5 13 3 -3 4 -12 1 -19z m-583 -4 c3 -8 2 -12 -4
-9 -6 3 -10 10 -10 16 0 14 7 11 14 -7z m676 2 c0 -11 -19 -15 -25 -6 -3 5 1
10 9 10 9 0 16 -2 16 -4z"/>
<path d="M6510 4075 c0 -8 7 -15 15 -15 8 0 15 7 15 15 0 8 -7 15 -15 15 -8 0
-15 -7 -15 -15z"/>
<path d="M6510 3835 c0 -8 7 -15 15 -15 8 0 15 7 15 15 0 8 -7 15 -15 15 -8 0
-15 -7 -15 -15z"/>
<path d="M3030 3830 c0 -5 5 -10 10 -10 6 0 10 5 10 10 0 6 -4 10 -10 10 -5 0
-10 -4 -10 -10z"/>
<path d="M6530 2924 c0 -14 3 -14 15 -4 8 7 15 14 15 16 0 2 -7 4 -15 4 -8 0
-15 -7 -15 -16z"/>
<path d="M7718 2713 c7 -3 16 -2 19 1 4 3 -2 6 -13 5 -11 0 -14 -3 -6 -6z"/>
<path d="M6530 2687 c0 -10 8 -17 18 -17 9 0 13 4 7 8 -5 4 -13 11 -17 16 -5
5 -8 2 -8 -7z"/>
<path d="M6530 2450 c0 -5 7 -10 15 -10 8 0 15 5 15 10 0 6 -7 10 -15 10 -8 0
-15 -4 -15 -10z"/>
<path d="M3520 1770 c0 -5 5 -10 10 -10 6 0 10 5 10 10 0 6 -4 10 -10 10 -5 0
-10 -4 -10 -10z"/>
</g>
</svg>
